<svg xmlns="http://www.w3.org/2000/svg" xmlns:xlink="http://www.w3.org/1999/xlink" style="position:absolute; width: 0; height: 0"><symbol class="w-6 h-6 svg-exclamation-cicle" fill="currentColor" viewBox="0 0 24 24" id="exclamation-cicle"><path class="exclamation-cicle-path-0" fill-rule="evenodd" d="M2.25 12c0-5.385 4.365-9.75 9.75-9.75s9.75 4.365 9.75 9.75-4.365 9.75-9.75 9.75S2.25 17.385 2.25 12zM12 8.25a.75.75 0 01.75.75v3.75a.75.75 0 01-1.5 0V9a.75.75 0 01.75-.75zm0 8.25a.75.75 0 100-1.5.75.75 0 000 1.5z" clip-rule="evenodd"></path></symbol><symbol class="w-6 h-6 svg-eye-slash" fill="currentColor" viewBox="0 0 24 24" id="eye-slash"><path class="eye-slash-path-0" d="M3.53 2.47a.75.75 0 00-1.06 1.06l18 18a.75.75 0 101.06-1.06l-18-18zm19.146 10.083a11.249 11.249 0 01-2.631 4.31l-3.099-3.099a5.25 5.25 0 00-6.71-6.71L7.759 4.577a11.217 11.217 0 014.242-.827c4.97 0 9.185 3.223 10.675 7.69.12.362.12.752 0 1.113z"></path><path class="eye-slash-path-1" d="M15.75 12c0 .18-.013.357-.037.53l-4.244-4.243A3.75 3.75 0 0115.75 12zm-3.22 3.713l-4.243-4.244a3.75 3.75 0 004.243 4.243z"></path><path class="eye-slash-path-2" d="M6.75 12c0-.619.107-1.213.304-1.764l-3.1-3.1a11.25 11.25 0 00-2.63 4.31c-.12.362-.12.752 0 1.114 1.489 4.467 5.704 7.69 10.675 7.69 1.5 0 2.933-.294 4.242-.827l-2.477-2.477A5.25 5.25 0 016.75 12z"></path></symbol><symbol class="w-6 h-6 svg-eye" fill="currentColor" viewBox="0 0 24 24" id="eye"><path class="eye-path-0" d="M12 15a3 3 0 100-6 3 3 0 000 6z"></path><path class="eye-path-1" fill-rule="evenodd" d="M1.323 11.447C2.811 6.976 7.028 3.75 12.001 3.75c4.97 0 9.185 3.223 10.675 7.69.12.362.12.752 0 1.113-1.487 4.471-5.705 7.697-10.677 7.697-4.97 0-9.186-3.223-10.675-7.69a1.762 1.762 0 010-1.113zM17.25 12a5.25 5.25 0 11-10.5 0 5.25 5.25 0 0110.5 0z" clip-rule="evenodd"></path></symbol><symbol fill="currentColor" viewBox="0 0 20 20" id="facebook"><path class="facebook-path-0" d="M20 10c0-5.523-4.477-10-10-10S0 4.477 0 10c0 4.991 3.657 9.128 8.438 9.878v-6.987h-2.54V10h2.54V7.797c0-2.506 1.492-3.89 3.777-3.89 1.094 0 2.238.195 2.238.195v2.46h-1.26c-1.243 0-1.63.771-1.63 1.562V10h2.773l-.443 2.89h-2.33v6.988C16.343 19.128 20 14.991 20 10z"></path></symbol><symbol class="bi bi-google svg-google" fill="currentColor" viewBox="0 0 16 16" id="google"><path class="google-path-0" d="M15.545 6.558a9.42 9.42 0 01.139 1.626c0 2.434-.87 4.492-2.384 5.885h.002C11.978 15.292 10.158 16 8 16A8 8 0 118 0a7.689 7.689 0 015.352 2.082l-2.284 2.284A4.347 4.347 0 008 3.166c-2.087 0-3.86 1.408-4.492 3.304a4.792 4.792 0 000 3.063h.003c.635 1.893 2.405 3.301 4.492 3.301 1.078 0 2.004-.276 2.722-.764h-.003a3.702 3.702 0 001.599-2.431H8v-3.08h7.545z"></path></symbol><symbol fill="currentColor" aria-hidden="true" viewBox="0 0 20 20" id="mini-x-mark"><path class="mini-x-mark-path-0" d="M6.28 5.22a.75.75 0 00-1.06 1.06L8.94 10l-3.72 3.72a.75.75 0 101.06 1.06L10 11.06l3.72 3.72a.75.75 0 101.06-1.06L11.06 10l3.72-3.72a.75.75 0 00-1.06-1.06L10 8.94 6.28 5.22z"></path></symbol><symbol fill="none" stroke="currentColor" stroke-width="1.5" aria-hidden="true" viewBox="0 0 24 24" id="outline-check-circle"><path class="outline-check-circle-path-0" stroke-linecap="round" stroke-linejoin="round" d="M9 12.75L11.25 15 15 9.75M21 12a9 9 0 11-18 0 9 9 0 0118 0z"></path></symbol><symbol fill="currentColor" viewBox="0 0 24 24" id="reddit"><path class="reddit-path-0" d="M12 0A12 12 0 000 12a12 12 0 0012 12 12 12 0 0012-12A12 12 0 0012 0zm5.01 4.744c.688 0 1.25.561 1.25 1.249a1.25 1.25 0 01-2.498.056l-2.597-.547-.8 3.747c1.824.07 3.48.632 4.674 1.488.308-.309.73-.491 1.207-.491.968 0 1.754.786 1.754 1.754 0 .716-.435 1.333-1.01 1.614a3.111 3.111 0 01.042.52c0 2.694-3.13 4.87-7.004 4.87-3.874 0-7.004-2.176-7.004-4.87 0-.183.015-.366.043-.534A1.748 1.748 0 014.028 12c0-.968.786-1.754 1.754-1.754.463 0 .898.196 1.207.49 1.207-.883 2.878-1.43 4.744-1.487l.885-4.182a.342.342 0 01.14-.197.35.35 0 01.238-.042l2.906.617a1.214 1.214 0 011.108-.701zM9.25 12C8.561 12 8 12.562 8 13.25c0 .687.561 1.248 1.25 1.248.687 0 1.248-.561 1.248-1.249 0-.688-.561-1.249-1.249-1.249zm5.5 0c-.687 0-1.248.561-1.248 1.25 0 .687.561 1.248 1.249 1.248.688 0 1.249-.561 1.249-1.249 0-.687-.562-1.249-1.25-1.249zm-5.466 3.99a.327.327 0 00-.231.094.33.33 0 000 .463c.842.842 2.484.913 2.961.913.477 0 2.105-.056 2.961-.913a.361.361 0 00.029-.463.33.33 0 00-.464 0c-.547.533-1.684.73-2.512.73-.828 0-1.979-.196-2.512-.73a.326.326 0 00-.232-.095z"></path></symbol><symbol fill="currentColor" viewBox="0 0 20 20" id="twitter"><path class="twitter-path-0" d="M6.29 18.251c7.547 0 11.675-6.253 11.675-11.675 0-.178 0-.355-.012-.53A8.348 8.348 0 0020 3.92a8.19 8.19 0 01-2.357.646 4.118 4.118 0 001.804-2.27 8.224 8.224 0 01-2.605.996 4.107 4.107 0 00-6.993 3.743 11.65 11.65 0 01-8.457-4.287 4.106 4.106 0 001.27 5.477A4.073 4.073 0 01.8 7.713v.052a4.105 4.105 0 003.292 4.022 4.095 4.095 0 01-1.853.07 4.108 4.108 0 003.834 2.85A8.233 8.233 0 010 16.407a11.616 11.616 0 006.29 1.84"></path></symbol></svg>