<svg xmlns="http://www.w3.org/2000/svg" viewBox="0 0 24 24"><path d="M20.317 4.37a19.791 19.791 0 00-4.885-1.515.074.074 0 00-.079.037c-.211.375-.444.864-.608 1.249-1.845-.276-3.68-.276-5.487 0-.163-.393-.406-.874-.617-1.249a.077.077 0 00-.079-.037A19.736 19.736 0 003.677 4.37a.07.07 0 00-.032.027C.533 9.046-.319 13.58.099 18.058a.082.082 0 00.031.056c2.053 1.508 4.042 2.423 5.993 3.029a.078.078 0 00.084-.027c.462-.631.874-1.295 1.226-1.994a.076.076 0 00-.041-.106c-.653-.248-1.274-.55-1.872-.892a.077.077 0 01-.008-.128c.126-.094.252-.192.372-.292a.074.074 0 01.077-.01c3.928 1.793 8.18 1.793 12.062 0a.074.074 0 01.078.009c.121.099.246.199.373.293a.077.077 0 01-.006.127 12.299 12.299 0 01-1.873.892.077.077 0 00-.041.107c.36.698.772 1.362 1.225 1.993a.076.076 0 00.084.028c1.961-.606 3.95-1.522 6.002-3.029a.077.077 0 00.032-.055c.5-5.177-.838-9.674-3.549-13.661a.061.061 0 00-.031-.028zM8.02 15.331c-1.183 0-2.157-1.085-2.157-2.419 0-1.333.956-2.419 2.157-2.419 1.211 0 2.176 1.096 2.157 2.419 0 1.334-.956 2.419-2.157 2.419zm7.975 0c-1.183 0-2.157-1.085-2.157-2.419 0-1.333.955-2.419 2.157-2.419 1.211 0 2.176 1.096 2.157 2.419 0 1.334-.946 2.419-2.157 2.419z"/></svg>