<?xml version="1.0" standalone="no"?>
<!DOCTYPE svg PUBLIC "-//W3C//DTD SVG 20010904//EN"
 "http://www.w3.org/TR/2001/REC-SVG-20010904/DTD/svg10.dtd">
<svg version="1.0" xmlns="http://www.w3.org/2000/svg"
 width="700.000000pt" height="700.000000pt" viewBox="0 0 700.000000 700.000000"
 preserveAspectRatio="xMidYMid meet">
<metadata>
Created by potrace 1.14, written by Peter Selinger 2001-2017
</metadata>
<g transform="translate(0.000000,700.000000) scale(0.100000,-0.100000)"
fill="#000000" stroke="none">
<path d="M3278 6996 c-1 -2 -39 -6 -83 -10 -398 -31 -840 -152 -1210 -332
-180 -87 -448 -247 -555 -331 -8 -6 -51 -40 -95 -74 -353 -275 -673 -651 -897
-1054 -49 -87 -148 -289 -148 -301 0 -2 -9 -23 -20 -47 -57 -123 -157 -435
-186 -582 -2 -11 -10 -54 -19 -95 -22 -115 -30 -160 -41 -255 -26 -230 -26
-667 1 -826 2 -13 6 -46 9 -74 9 -78 22 -152 51 -285 21 -96 91 -339 114 -395
5 -11 25 -65 46 -120 63 -166 249 -531 312 -610 4 -6 34 -49 65 -95 170 -255
433 -535 708 -755 92 -74 370 -265 386 -265 4 0 15 -6 23 -14 26 -22 298 -158
411 -205 267 -111 589 -200 859 -237 25 -3 57 -8 71 -10 163 -25 682 -25 842
1 13 2 46 7 73 10 71 10 87 13 115 18 14 3 43 8 65 12 22 4 76 16 120 27 44
10 87 21 96 23 25 5 157 45 219 65 178 57 568 235 660 300 15 11 33 20 39 20
6 0 11 5 11 10 0 6 5 10 10 10 15 0 220 141 330 227 152 118 324 280 450 422
36 41 70 79 76 85 6 6 48 61 94 121 152 200 276 403 388 638 29 59 52 110 52
113 0 3 8 24 19 47 53 118 147 417 177 562 17 81 54 301 59 350 4 33 9 71 11
85 9 46 11 524 4 605 -15 153 -21 210 -25 225 -2 8 -7 35 -10 60 -17 129 -80
384 -136 552 -324 964 -1052 1740 -1999 2131 -220 90 -558 185 -760 212 -19 3
-46 7 -60 10 -13 2 -52 7 -86 11 -33 3 -74 8 -90 10 -32 5 -540 14 -546 10z
m1816 -1407 c101 -37 202 -154 223 -255 34 -170 -48 -333 -207 -408 -57 -27
-75 -31 -151 -31 -76 1 -93 4 -150 32 -109 54 -172 131 -199 241 l-16 67 -125
27 c-179 39 -629 135 -629 133 0 -1 -14 -64 -31 -141 -17 -76 -32 -148 -34
-159 -1 -11 -14 -73 -29 -137 -14 -64 -27 -127 -30 -140 -2 -13 -18 -88 -35
-168 -17 -80 -33 -156 -36 -170 -2 -14 -12 -58 -22 -97 -9 -40 -15 -75 -12
-77 2 -2 45 -7 94 -10 430 -29 845 -159 1179 -370 l88 -56 35 30 c76 67 187
106 308 109 139 3 264 -48 365 -149 105 -105 152 -224 149 -374 -4 -173 -92
-332 -237 -425 l-50 -32 5 -102 c9 -183 -24 -340 -108 -510 -197 -404 -651
-726 -1225 -871 -76 -19 -152 -37 -169 -40 -79 -14 -109 -18 -220 -31 -199
-24 -548 -19 -720 11 -16 2 -55 9 -85 14 -97 16 -104 18 -175 34 -459 106
-878 349 -1118 649 -121 150 -214 342 -241 497 -3 19 -8 46 -11 60 -8 37 -9
243 -1 267 6 18 -3 27 -52 57 -245 148 -319 472 -164 712 70 107 178 186 300
219 65 16 178 19 238 4 62 -15 158 -61 206 -100 l37 -29 73 47 c105 69 103 68
213 122 143 70 160 77 323 131 145 47 339 92 457 106 33 3 68 8 78 10 10 2 67
6 125 10 59 3 110 8 113 10 4 2 9 20 12 41 3 21 31 157 62 303 31 146 59 276
61 290 3 14 11 53 19 88 8 34 17 76 20 92 3 16 12 58 20 92 8 35 16 74 18 88
15 83 49 226 59 244 26 49 71 57 181 32 93 -22 199 -45 227 -50 14 -2 90 -19
170 -36 80 -17 156 -34 170 -36 27 -5 105 -22 160 -35 24 -6 36 -5 41 4 93
164 278 232 453 166z"/>
<path d="M2583 3481 c-257 -87 -332 -416 -137 -605 178 -173 476 -118 580 107
26 55 29 73 29 157 0 87 -3 100 -32 155 -38 74 -106 138 -181 173 -72 33 -183
38 -259 13z"/>
<path d="M4203 3485 c-98 -30 -182 -101 -230 -195 -25 -50 -28 -65 -28 -155 0
-90 3 -105 28 -153 120 -230 405 -280 584 -104 148 146 143 381 -11 526 -85
79 -234 115 -343 81z"/>
<path d="M2675 2330 c-25 -10 -51 -38 -59 -67 -24 -77 123 -195 337 -270 84
-29 183 -51 332 -73 72 -10 423 -7 485 4 210 39 303 67 414 122 79 40 170 106
193 140 32 49 18 120 -29 141 -38 17 -74 7 -129 -37 -183 -145 -508 -214 -869
-186 -52 4 -97 9 -101 12 -3 2 -24 6 -45 8 -130 17 -322 95 -408 166 -26 22
-53 40 -60 41 -6 0 -18 2 -26 3 -8 2 -24 0 -35 -4z"/>
</g>
</svg>
